<?xml version="1.0" encoding="UTF-8"?>
<!-- Generated by Pixelmator Pro 3.4.3 -->
<svg width="1080" height="638" viewBox="0 0 1080 638" xmlns="http://www.w3.org/2000/svg">
    <path id="Trac" fill="none" stroke="#ffffff" stroke-width="7" d="M 628 302 C 628 459.95343 493.013855 588 326.5 588 C 159.986145 588 25 459.95343 25 302 C 25 144.04657 159.986145 16 326.5 16 C 493.013855 16 628 144.04657 628 302 Z"/>
    <path id="path1" fill="none" stroke="#ffffff" stroke-width="6" d="M 957 421 C 957 486.721863 900.364014 540 830.5 540 C 760.635986 540 704 486.721863 704 421 C 704 355.278137 760.635986 302 830.5 302 C 900.364014 302 957 355.278137 957 421 Z"/>
    <path id="path2" fill="none" stroke="#ffffff" stroke-width="6" d="M 1045 421 C 1045 534.218384 948.293518 626 829 626 C 709.706482 626 613 534.218384 613 421 C 613 307.781616 709.706482 216 829 216 C 948.293518 216 1045 307.781616 1045 421 Z"/>
    <g id="Associer">
        <g id="g1">
            <path id="path3" fill="none" stroke="#1b203d" stroke-width="20" d="M 818.849976 613.799988 C 753.840027 611.26001 692.690002 581.179993 652.48999 515.22998 C 604.98999 437.309998 622.539978 337.380005 692.72998 277.859985 C 781.349976 202.709961 918.02002 214.219971 991.039978 303 C 1015.880005 333.200012 1027.380005 368.51001 1032.030029 406.849976 C 1041.76001 486.900024 996.190002 554.450012 925.76001 590.669983 C 895.580017 606.179993 863.650024 613.809998 818.849976 613.799988 Z"/>
            <path id="path4" fill="none" stroke="#1b203d" stroke-width="21" d="M 311.98999 575.859985 C 219.850006 572.26001 133.190002 529.630005 76.209999 436.150024 C 8.89 325.709961 33.759998 184.079956 133.25 99.719971 C 258.859985 -6.789978 452.549988 9.52002 556.039978 135.349976 C 591.23999 178.150024 607.539978 228.200012 614.140015 282.540039 C 627.919983 396 563.340027 491.72998 463.519989 543.059998 C 420.75 565.059998 375.5 575.869995 311.98999 575.859985 Z"/>
            <path id="path5" fill="#19203c" stroke="#ffffff" stroke-width="6" d="M 619.549988 76.830017 L 704.580017 76.830017 L 705 380.950012 L 683.97998 484 L 619.549988 311.880005 Z"/>
            <path id="path6" fill="#19203c" stroke="#ffffff" stroke-width="6" d="M 620.390015 583.880005 L 537.280029 583.880005 L 537.530029 377.570007 L 550.599976 334.429993 L 550.73999 286.880005 L 539.559998 234.589966 L 531 203.059998 L 620.390015 413.880005 Z"/>
            <path id="path7" fill="#19203c" stroke="none" d="M 523.5 204.5 L 560.5 257.5 L 562.5 342.5 L 543.5 385.5 L 533.219971 378.679993 L 546.429993 329.140015 L 542.5 261.5 Z"/>
            <path id="path8" fill="none" stroke="#1b203d" stroke-width="15" d="M 822.880005 549.549988 C 779.380005 547.849976 738.47998 527.719971 711.580017 483.599976 C 679.799988 431.469971 691.539978 364.609985 738.51001 324.780029 C 797.799988 274.5 889.23999 282.200012 938.090027 341.599976 C 954.710022 361.799988 962.400024 385.429993 965.52002 411.080017 C 972.030029 464.640015 941.539978 509.830017 894.419983 534.059998 C 874.219971 544.460022 852.859985 549.559998 822.880005 549.549988 Z"/>
            <path id="path9" fill="none" stroke="#1b203d" stroke-width="13" d="M 313.839996 511.969971 C 243.460007 509.219971 177.270004 476.650024 133.740005 405.26001 C 82.32 320.910034 101.309998 212.72998 177.309998 148.290039 C 273.25 66.940002 421.200012 79.390015 500.25 175.51001 C 527.140015 208.200012 539.590027 246.429993 544.630005 287.940002 C 555.159973 374.599976 505.829987 447.72998 429.579987 486.929993 C 396.910004 503.719971 362.350006 511.969971 313.839996 511.969971 Z"/>
            <path id="path10" fill="#f8b11a" stroke="#ffffff" stroke-width="6" d="M 536.799988 394.419983 C 536.799988 396.150024 536.799988 397.880005 536.799988 399.619995 C 536.799988 422.460022 536.619995 445.289978 536.909973 468.130005 C 536.98999 474.539978 534.73999 479.219971 530.280029 483.539978 C 492.549988 520.059998 448.23999 544.950012 397.220001 556.98999 C 329.470001 572.97998 263.540009 567.409973 200.589996 536.549988 C 148.179993 510.859985 105.739998 474.090027 79.25 421.280029 C 33.09 329.27002 37.299999 227.900024 107.279999 141.940002 C 152.800003 86.030029 211.399994 54.059998 282.179993 43.219971 C 364.76001 30.580017 439.089996 50.380005 505.700012 100.150024 C 526.539978 115.719971 541.559998 136.670044 556.359985 157.679993 C 577.789978 188.099976 593.02002 221.76001 607.179993 255.929993 C 635.840027 325.089966 664.890015 394.099976 692.719971 463.590027 C 716.419983 522.77002 760.859985 552.48999 822.690002 557.969971 C 890.659973 563.98999 957.049988 513.77002 971.320007 446.909973 C 980.869995 402.169983 967.890015 364.059998 937.840027 330.890015 C 908.73999 298.77002 872.200012 283.170044 829.049988 283.859985 C 778.650024 284.670044 738.02002 305.089966 708.280029 346.23999 C 707.419983 347.429993 706.5 348.580017 705.219971 350.25 C 704.859985 349.179993 704.52002 348.659973 704.52002 348.140015 C 704.599976 328.97998 704.72998 309.809998 704.799988 290.650024 C 704.820007 286.219971 706.52002 282.900024 709.820007 279.780029 C 732.679993 258.130005 760.77002 246.929993 790.890015 241.570007 C 860.179993 229.22998 920.960022 248.290039 972.090027 296.109985 C 1000.299988 322.48999 1014.530029 356.900024 1021.349976 394.5 C 1030.650024 445.719971 1014.289978 490.289978 984.460022 530.659973 C 956.849976 568.030029 918.130005 588.429993 873.580017 598.559998 C 804.23999 614.320007 743.789978 596.059998 691.219971 549.590027 C 673.679993 534.080017 662.349976 513.900024 653.369995 492.580017 C 620.549988 414.700012 587.960022 336.72998 555.349976 258.76001 C 543.97998 231.570007 532.690002 204.349976 515.590027 180.049988 C 483.339996 134.209961 438.950012 105.900024 385.160004 92.959961 C 299.980011 72.47998 225.100006 94.079956 161.5 153.369995 C 127.209999 185.339966 108.699997 226.400024 101.290001 272.469971 C 90.050003 342.409973 113.230003 401.059998 161.059998 451.099976 C 211.770004 504.159973 275.209991 523.590027 347 518.780029 C 406.279999 514.809998 455.980011 489.530029 497.869995 448.140015 C 511.730011 434.440002 521.919983 417.97998 531.210022 400.960022 C 532.5 398.590027 533.98999 396.320007 535.390015 394.01001 C 535.840027 394.119995 536.320007 394.27002 536.799988 394.419983 Z"/>
            <path id="path11" fill="#ffffff" stroke="none" d="M 533 392 L 537.679993 382 L 540 383.469971 L 534.869995 391 Z"/>
            <path id="path12" fill="#ffffff" stroke="none" d="M 540.48999 383.52002 L 537.679993 381.619995 L 537.380005 382.609985 Z"/>
        </g>
        <path id="path13" fill="#ffffff" stroke="none" d="M 701.299988 344 L 701.299988 359 L 706 354.5 Z"/>
    </g>
    <path id="path14" fill="none" stroke="#ffffff" stroke-width="5" d="M 537 304 C 537 414.45697 442.308228 504 325.5 504 C 208.691772 504 114 414.45697 114 304 C 114 193.543091 208.691772 104 325.5 104 C 442.308228 104 537 193.543091 537 304 Z"/>
</svg>
